<svg width="30" height="30" viewBox="0 0 30 30" fill="none" xmlns="http://www.w3.org/2000/svg">
<path d="M11.0486 11.9722L14.125 10.4445C14.404 10.3102 14.6938 10.243 14.9943 10.243C15.2947 10.243 15.5883 10.3102 15.875 10.4445L18.9653 11.9722V2.88888H11.0486V11.9722ZM8.33333 23.257C7.89492 23.257 7.52026 23.1014 7.20937 22.7902C6.89849 22.479 6.74304 22.104 6.74304 21.6652C6.74304 21.2264 6.89849 20.8495 7.20937 20.5347C7.52026 20.2199 7.89492 20.0625 8.33333 20.0625H13.3333C13.7757 20.0625 14.1537 20.219 14.4672 20.532C14.7807 20.8451 14.9375 21.2224 14.9375 21.664C14.9375 22.1056 14.7807 22.4815 14.4672 22.7917C14.1537 23.1019 13.7757 23.257 13.3333 23.257H8.33333ZM2.88887 29.75C2.17707 29.75 1.55931 29.4881 1.03558 28.9644C0.511861 28.4407 0.25 27.8229 0.25 27.1111V2.88888C0.25 2.17707 0.511861 1.55931 1.03558 1.03558C1.55931 0.511861 2.17707 0.25 2.88887 0.25H27.1111C27.8229 0.25 28.4407 0.511861 28.9644 1.03558C29.4881 1.55931 29.75 2.17707 29.75 2.88888V27.1111C29.75 27.8229 29.4881 28.4407 28.9644 28.9644C28.4407 29.4881 27.8229 29.75 27.1111 29.75H2.88887ZM2.88887 27.1111H27.1111V2.88888H21.6042V14.0972C21.6042 14.6088 21.3958 14.9925 20.9792 15.2483C20.5625 15.5041 20.1343 15.5185 19.6945 15.2917L15 12.9445L10.3055 15.2917C9.86574 15.5185 9.43982 15.5041 9.02779 15.2483C8.61574 14.9925 8.40971 14.6088 8.40971 14.0972V2.88888H2.88887V27.1111Z" fill="white"/>
</svg>
