<svg width="34" height="34" viewBox="0 0 34 34" fill="none" xmlns="http://www.w3.org/2000/svg">
<path d="M6.57328 26.0625C8.2235 24.9004 9.89005 24.0069 11.5729 23.3819C13.2558 22.7569 15.0648 22.4444 17 22.4444C18.9352 22.4444 20.7465 22.7569 22.434 23.3819C24.1215 24.0069 25.7986 24.9004 27.4653 26.0625C28.6273 24.6597 29.4653 23.2144 29.9792 21.7266C30.493 20.2388 30.75 18.6638 30.75 17.0018C30.75 13.1163 29.4294 9.85295 26.7882 7.21175C24.147 4.57056 20.8843 3.24996 17 3.24996C13.1157 3.24996 9.85297 4.57056 7.21178 7.21175C4.57059 9.85295 3.24999 13.1163 3.24999 17.0018C3.24999 18.6638 3.51156 20.2388 4.0347 21.7266C4.55784 23.2144 5.40403 24.6597 6.57328 26.0625ZM16.9979 18.3333C15.3974 18.3333 14.0486 17.784 12.9514 16.6854C11.8541 15.5867 11.3055 14.2372 11.3055 12.6368C11.3055 11.0363 11.8549 9.68747 12.9535 8.59025C14.0521 7.49303 15.4016 6.94442 17.0021 6.94442C18.6025 6.94442 19.9514 7.49372 21.0486 8.59233C22.1458 9.69094 22.6944 11.0405 22.6944 12.6409C22.6944 14.2414 22.1451 15.5902 21.0465 16.6875C19.9479 17.7847 18.5984 18.3333 16.9979 18.3333ZM17.006 33.3888C14.7546 33.3888 12.6313 32.9569 10.6362 32.0932C8.64102 31.2294 6.9031 30.0558 5.42241 28.5723C3.94171 27.0889 2.76966 25.3532 1.90624 23.3651C1.04282 21.3771 0.611115 19.2529 0.611115 16.9926C0.611115 14.7408 1.043 12.6197 1.90678 10.6292C2.77059 8.63867 3.9442 6.90307 5.42761 5.42238C6.91106 3.94168 8.6468 2.76963 10.6348 1.90621C12.6228 1.04279 14.747 0.611084 17.0074 0.611084C19.2591 0.611084 21.3803 1.04297 23.3708 1.90675C25.3613 2.77056 27.0969 3.94417 28.5776 5.42758C30.0583 6.91103 31.2303 8.64731 32.0937 10.6364C32.9572 12.6256 33.3889 14.7447 33.3889 16.9939C33.3889 19.2454 32.957 21.3687 32.0932 23.3638C31.2294 25.3589 30.0558 27.0968 28.5724 28.5775C27.0889 30.0582 25.3526 31.2303 23.3635 32.0937C21.3744 32.9571 19.2552 33.3888 17.006 33.3888ZM16.9992 30.75C18.4905 30.75 19.9271 30.5347 21.309 30.1041C22.691 29.6736 24.0509 28.9537 25.3889 27.9444C24.0509 27.0139 22.6865 26.3044 21.2957 25.8159C19.9049 25.3275 18.4738 25.0833 17.0025 25.0833C15.5312 25.0833 14.0958 25.324 12.6964 25.8055C11.2969 26.287 9.93516 27 8.61107 27.9444C9.94905 28.9537 11.3087 29.6736 12.6901 30.1041C14.0715 30.5347 15.5079 30.75 16.9992 30.75ZM17 15.6944C17.8842 15.6944 18.6146 15.4062 19.191 14.8298C19.7674 14.2534 20.0556 13.5231 20.0556 12.6388C20.0556 11.7546 19.7674 11.0243 19.191 10.4479C18.6146 9.87149 17.8842 9.58329 17 9.58329C16.1157 9.58329 15.3854 9.87149 14.809 10.4479C14.2326 11.0243 13.9444 11.7546 13.9444 12.6388C13.9444 13.5231 14.2326 14.2534 14.809 14.8298C15.3854 15.4062 16.1157 15.6944 17 15.6944Z" fill="white"/>
</svg>
