<svg width="42" height="29" viewBox="0 0 42 29" fill="none" xmlns="http://www.w3.org/2000/svg">
<path d="M7.848 18.668C8.312 18.668 8.648 18.532 8.856 18.26C9.08 17.972 9.248 17.628 9.36 17.228H12.384C12.32 17.82 12.168 18.38 11.928 18.908C11.688 19.42 11.368 19.868 10.968 20.252C10.584 20.636 10.12 20.94 9.576 21.164C9.048 21.388 8.48 21.5 7.872 21.5H5.808C5.168 21.5 4.56 21.38 3.984 21.14C3.408 20.884 2.904 20.54 2.472 20.108C2.04 19.676 1.696 19.172 1.44 18.596C1.2 18.02 1.08 17.404 1.08 16.748V9.932C1.08 9.276 1.2 8.66 1.44 8.084C1.696 7.492 2.04 6.98 2.472 6.548C2.904 6.116 3.408 5.78 3.984 5.54C4.56 5.284 5.168 5.156 5.808 5.156H7.872C8.496 5.156 9.072 5.268 9.6 5.492C10.128 5.716 10.584 6.028 10.968 6.428C11.368 6.812 11.688 7.268 11.928 7.796C12.168 8.324 12.32 8.892 12.384 9.5H9.36C9.28 9.084 9.128 8.732 8.904 8.444C8.68 8.156 8.328 8.012 7.848 8.012H5.832C5.272 8.012 4.824 8.212 4.488 8.612C4.168 9.012 4.008 9.5 4.008 10.076V16.58C4.008 17.156 4.168 17.652 4.488 18.068C4.824 18.468 5.272 18.668 5.832 18.668H7.848ZM13.9153 13.148C13.9633 12.636 14.0753 12.148 14.2513 11.684C14.4433 11.22 14.7153 10.812 15.0673 10.46C15.4193 10.108 15.8593 9.828 16.3873 9.62C16.9153 9.396 17.5233 9.284 18.2113 9.284H19.6513C20.3713 9.284 20.9953 9.404 21.5233 9.644C22.0673 9.884 22.5153 10.204 22.8673 10.604C23.2193 10.988 23.4833 11.436 23.6593 11.948C23.8353 12.444 23.9233 12.948 23.9233 13.46V21.5H17.1073C16.5793 21.5 16.1073 21.404 15.6913 21.212C15.2753 21.004 14.9233 20.74 14.6353 20.42C14.3633 20.084 14.1553 19.692 14.0113 19.244C13.8833 18.796 13.8193 18.316 13.8193 17.804C13.8193 17.308 13.8913 16.844 14.0353 16.412C14.1793 15.98 14.3873 15.612 14.6593 15.308C14.9313 14.988 15.2673 14.74 15.6673 14.564C16.0833 14.372 16.5473 14.276 17.0593 14.276H21.1633V14.036C21.1633 13.748 21.1393 13.484 21.0913 13.244C21.0433 12.988 20.9553 12.772 20.8273 12.596C20.6993 12.42 20.5073 12.284 20.2513 12.188C19.9953 12.076 19.6513 12.02 19.2193 12.02H18.6193C17.9793 12.02 17.5233 12.116 17.2513 12.308C16.9793 12.484 16.7953 12.764 16.6993 13.148H13.9153ZM16.3873 17.804C16.3873 18.22 16.4673 18.532 16.6273 18.74C16.8033 18.932 16.9953 19.028 17.2033 19.028H21.1633V16.58H17.2033C16.9953 16.58 16.8033 16.684 16.6273 16.892C16.4673 17.1 16.3873 17.404 16.3873 17.804ZM31.1083 9.284C31.8123 9.284 32.4363 9.396 32.9803 9.62C33.5403 9.828 34.0123 10.124 34.3963 10.508C34.7963 10.892 35.1003 11.356 35.3083 11.9C35.5163 12.444 35.6203 13.06 35.6203 13.748V17.036C35.6203 17.708 35.5163 18.324 35.3083 18.884C35.1003 19.428 34.7963 19.9 34.3963 20.3C34.0123 20.684 33.5403 20.98 32.9803 21.188C32.4363 21.396 31.8123 21.5 31.1083 21.5H30.1483C29.4443 21.5 28.8123 21.396 28.2523 21.188C27.7083 20.98 27.2363 20.684 26.8363 20.3C26.4523 19.9 26.1563 19.428 25.9483 18.884C25.7403 18.324 25.6363 17.708 25.6363 17.036V13.748V13.556V5.156H28.4683V9.596C29.0603 9.388 29.6843 9.284 30.3403 9.284H31.1083ZM30.1483 12.044C29.6363 12.044 29.2283 12.204 28.9243 12.524C28.6363 12.844 28.4843 13.252 28.4683 13.748V16.94C28.4683 17.468 28.6203 17.9 28.9243 18.236C29.2283 18.572 29.6363 18.74 30.1483 18.74H31.1083C31.6203 18.74 32.0363 18.572 32.3563 18.236C32.6763 17.9 32.8363 17.468 32.8363 16.94V13.82C32.8363 13.292 32.6763 12.868 32.3563 12.548C32.0363 12.212 31.6203 12.044 31.1083 12.044H30.1483ZM40.3802 21.5H37.5482V9.284H40.3802V21.5ZM40.3802 7.964H37.5482V5.156H40.3802V7.964Z" fill="white"/>
</svg>
